<?xml version="1.0" encoding="UTF-8"?>
<svg version="1.1" xmlns="http://www.w3.org/2000/svg" width="46" height="49">
<path d="M0 0 C15.18 0 30.36 0 46 0 C46 16.17 46 32.34 46 49 C30.82 49 15.64 49 0 49 C0 32.83 0 16.66 0 0 Z " fill="#010101" transform="translate(0,0)"/>
<path d="M0 0 C2.31 0 4.62 0 7 0 C7 0.99 7 1.98 7 3 C7.63091553 2.99476318 8.26183105 2.98952637 8.91186523 2.98413086 C11.75373347 2.96342174 14.59558588 2.95035934 17.4375 2.9375 C18.43072266 2.92912109 19.42394531 2.92074219 20.44726562 2.91210938 C21.39150391 2.90888672 22.33574219 2.90566406 23.30859375 2.90234375 C24.62041626 2.89448853 24.62041626 2.89448853 25.95874023 2.88647461 C28 3 28 3 29 4 C29.08669432 5.4887186 29.10703494 6.981445 29.09765625 8.47265625 C29.09515869 9.28226807 29.09266113 10.09187988 29.09008789 10.92602539 C29.08098389 11.96106201 29.07187988 12.99609863 29.0625 14.0625 C29.041875 17.341875 29.02125 20.62125 29 24 C18.11 24 7.22 24 -4 24 C-4 17.07 -4 10.14 -4 3 C-2.68 3 -1.36 3 0 3 C0 2.01 0 1.02 0 0 Z " fill="#030303" transform="translate(12,14)"/>
<path d="M0 0 C2.31 0 4.62 0 7 0 C6.67 1.32 6.34 2.64 6 4 C6 3.01 6 2.02 6 1 C4.68 1 3.36 1 2 1 C2 1.99 2 2.98 2 4 C2.99 4.33 3.98 4.66 5 5 C4.67 10.94 4.34 16.88 4 23 C11.92 23 19.84 23 28 23 C28 23.33 28 23.66 28 24 C17.44 24 6.88 24 -4 24 C-4 17.07 -4 10.14 -4 3 C-2.68 3 -1.36 3 0 3 C0 2.01 0 1.02 0 0 Z " fill="#4D4D4D" transform="translate(12,14)"/>
<path d="M0 0 C1.9375 1.125 1.9375 1.125 3 3 C3.38976435 6.11811483 3.50422245 8.11019567 1.9375 10.875 C-1.14071911 12.66235303 -3.52906068 12.43386742 -7 12 C-9.42061048 9.89172636 -9.9127007 8.59654522 -10.375 5.4375 C-10 3 -10 3 -8.9375 1.1875 C-5.90624457 -0.67036623 -3.46577141 -0.37133265 0 0 Z " fill="#333333" transform="translate(31,22)"/>
<path d="M0 0 C1.32 0 2.64 0 4 0 C4.33 0.66 4.66 1.32 5 2 C5.63091553 1.99476318 6.26183105 1.98952637 6.91186523 1.98413086 C9.75373347 1.96342174 12.59558588 1.95035934 15.4375 1.9375 C16.43072266 1.92912109 17.42394531 1.92074219 18.44726562 1.91210938 C19.39150391 1.90888672 20.33574219 1.90566406 21.30859375 1.90234375 C22.62041626 1.89448853 22.62041626 1.89448853 23.95874023 1.88647461 C26 2 26 2 27 3 C27.08669432 4.4887186 27.10703494 5.981445 27.09765625 7.47265625 C27.09443359 8.37177734 27.09121094 9.27089844 27.08789062 10.19726562 C27.07951172 11.14279297 27.07113281 12.08832031 27.0625 13.0625 C27.05798828 14.01189453 27.05347656 14.96128906 27.04882812 15.93945312 C27.0370011 18.29303065 27.02052025 20.64648477 27 23 C26.34 22.67 25.68 22.34 25 22 C25 16.06 25 10.12 25 4 C23.44667969 4.01160156 21.89335938 4.02320313 20.29296875 4.03515625 C18.2578137 4.04453484 16.22265735 4.05363497 14.1875 4.0625 C12.65125977 4.07506836 12.65125977 4.07506836 11.08398438 4.08789062 C9.60961914 4.09272461 9.60961914 4.09272461 8.10546875 4.09765625 C7.19949951 4.10289307 6.29353027 4.10812988 5.36010742 4.11352539 C3 4 3 4 0 3 C0 2.01 0 1.02 0 0 Z " fill="#303030" transform="translate(14,15)"/>
<path d="M0 0 C1.65 0 3.3 0 5 0 C5 5.94 5 11.88 5 18 C3.35 18 1.7 18 0 18 C0 12.06 0 6.12 0 0 Z " fill="#E1E1E1" transform="translate(10,19)"/>
<path d="M0 0 C2.375 0.1875 2.375 0.1875 5 1 C6.5 3.3125 6.5 3.3125 7 6 C5.625 8.3125 5.625 8.3125 4 10 C-1.875 9.125 -1.875 9.125 -3 8 C-3.04063832 6.33382885 -3.042721 4.66611905 -3 3 C-2.67 3.66 -2.34 4.32 -2 5 C-0.68 4.67 0.64 4.34 2 4 C2 3.01 2 2.02 2 1 C1.34 0.67 0.68 0.34 0 0 Z " fill="#020202" transform="translate(26,23)"/>
</svg>
