<?xml version="1.0" encoding="UTF-8"?>
<svg version="1.1" xmlns="http://www.w3.org/2000/svg" width="274" height="75">
<path d="M0 0 C90.42 0 180.84 0 274 0 C274 24.75 274 49.5 274 75 C183.58 75 93.16 75 0 75 C0 50.25 0 25.5 0 0 Z " fill="#020202" transform="translate(0,0)"/>
<path d="M0 0 C0.99 0 1.98 0 3 0 C3.33 2.64 3.66 5.28 4 8 C5.051875 7.731875 6.10375 7.46375 7.1875 7.1875 C11 7 11 7 13.9375 8.9375 C16.76620649 13.13770054 16.71373503 15.00385481 16 20 C14.4375 22.5 14.4375 22.5 12 24 C8.375 24.25 8.375 24.25 5 24 C4.34 24 3.68 24 3 24 C2.01 24 1.02 24 0 24 C0 16.08 0 8.16 0 0 Z " fill="#CFCFCF" transform="translate(155,23)"/>
<path d="M0 0 C2.31 0 4.62 0 7 0 C6.67 1.32 6.34 2.64 6 4 C6 3.01 6 2.02 6 1 C4.68 1 3.36 1 2 1 C2 1.99 2 2.98 2 4 C2.99 4.33 3.98 4.66 5 5 C4.67 10.94 4.34 16.88 4 23 C11.92 23 19.84 23 28 23 C28 23.33 28 23.66 28 24 C17.44 24 6.88 24 -4 24 C-4 17.07 -4 10.14 -4 3 C-2.68 3 -1.36 3 0 3 C0 2.01 0 1.02 0 0 Z " fill="#4D4D4D" transform="translate(14,31)"/>
<path d="M0 0 C7.40053524 -0.36396075 7.40053524 -0.36396075 9.75 1.0625 C11.67816053 4.05114883 11.2839325 6.68378595 11.1875 10.1875 C11.16042969 11.45980469 11.13335937 12.73210938 11.10546875 14.04296875 C11.07066406 15.01878906 11.03585938 15.99460937 11 17 C9.04196493 17.05389087 7.08351091 17.09274217 5.125 17.125 C3.48917969 17.15980469 3.48917969 17.15980469 1.8203125 17.1953125 C-1 17 -1 17 -3 15 C-3.33015665 11.89652746 -3.50531294 9.84218824 -1.875 7.125 C0.81717543 5.50969474 2.92153205 5.73800273 6 6 C6.66 6.33 7.32 6.66 8 7 C7.34 5.35 6.68 3.7 6 2 C3.23723823 2.52268466 0.6739124 3.10869587 -2 4 C-1.34 2.68 -0.68 1.36 0 0 Z " fill="#DCDCDC" transform="translate(197,30)"/>
<path d="M0 0 C1.9375 1.125 1.9375 1.125 3 3 C3.38976435 6.11811483 3.50422245 8.11019567 1.9375 10.875 C-1.14071911 12.66235303 -3.52906068 12.43386742 -7 12 C-9.42061048 9.89172636 -9.9127007 8.59654522 -10.375 5.4375 C-10 3 -10 3 -8.9375 1.1875 C-5.90624457 -0.67036623 -3.46577141 -0.37133265 0 0 Z " fill="#333333" transform="translate(33,39)"/>
<path d="M0 0 C3 -0.375 3 -0.375 6 0 C8.47342266 3.71013399 8.38503486 5.61060262 8 10 C6.5 12.4375 6.5 12.4375 5 14 C0.25 13.25 0.25 13.25 -2 11 C-2.46376812 3.69565217 -2.46376812 3.69565217 0 0 Z " fill="#090909" transform="translate(160,32)"/>
<path d="M0 0 C1.32 0.33 2.64 0.66 4 1 C4.33 0.67 4.66 0.34 5 0 C10.2639374 -0.45773369 10.2639374 -0.45773369 12.71484375 1.06640625 C14.72721658 4.09414045 14.04510834 6.64392647 13.6875 10.1875 C13.56761719 11.45980469 13.44773438 12.73210938 13.32421875 14.04296875 C13.21722656 15.01878906 13.11023438 15.99460937 13 17 C12.34 17 11.68 17 11 17 C10.67 12.05 10.34 7.1 10 2 C8.02 2.66 6.04 3.32 4 4 C3.67 8.29 3.34 12.58 3 17 C2.01 17 1.02 17 0 17 C0 11.39 0 5.78 0 0 Z " fill="#CCCCCC" transform="translate(126,30)"/>
<path d="M0 0 C0.99 0 1.98 0 3 0 C4.65 3.63 6.3 7.26 8 11 C9.58971965 8.61542052 10.86741593 6.3695876 12.125 3.8125 C12.47820312 3.09707031 12.83140625 2.38164063 13.1953125 1.64453125 C13.46085938 1.10183594 13.72640625 0.55914063 14 0 C15.2194114 3.65823419 14.67355716 4.40748188 13.1640625 7.8515625 C12.75929687 8.78484375 12.35453125 9.718125 11.9375 10.6796875 C11.504375 11.65164062 11.07125 12.62359375 10.625 13.625 C10.19960937 14.6046875 9.77421875 15.584375 9.3359375 16.59375 C6.16791102 23.83208898 6.16791102 23.83208898 5 25 C3.33382885 25.04063832 1.66611905 25.042721 0 25 C0.495 23.515 0.495 23.515 1 22 C1.99 22 2.98 22 4 22 C5.70325038 18.27202483 6.21215072 16.63125966 4.8828125 12.67578125 C4.01269531 11.01095703 4.01269531 11.01095703 3.125 9.3125 C0 3.23766816 0 3.23766816 0 0 Z " fill="#CFCFCF" transform="translate(241,30)"/>
<path d="M0 0 C1.32 0 2.64 0 4 0 C4.33 0.66 4.66 1.32 5 2 C5.63091553 1.99476318 6.26183105 1.98952637 6.91186523 1.98413086 C9.75373347 1.96342174 12.59558588 1.95035934 15.4375 1.9375 C16.43072266 1.92912109 17.42394531 1.92074219 18.44726562 1.91210938 C19.39150391 1.90888672 20.33574219 1.90566406 21.30859375 1.90234375 C22.62041626 1.89448853 22.62041626 1.89448853 23.95874023 1.88647461 C26 2 26 2 27 3 C27.08669432 4.4887186 27.10703494 5.981445 27.09765625 7.47265625 C27.09443359 8.37177734 27.09121094 9.27089844 27.08789062 10.19726562 C27.07951172 11.14279297 27.07113281 12.08832031 27.0625 13.0625 C27.05798828 14.01189453 27.05347656 14.96128906 27.04882812 15.93945312 C27.0370011 18.29303065 27.02052025 20.64648477 27 23 C26.34 22.67 25.68 22.34 25 22 C25 16.06 25 10.12 25 4 C23.44667969 4.01160156 21.89335938 4.02320313 20.29296875 4.03515625 C18.2578137 4.04453484 16.22265735 4.05363497 14.1875 4.0625 C12.65125977 4.07506836 12.65125977 4.07506836 11.08398438 4.08789062 C9.60961914 4.09272461 9.60961914 4.09272461 8.10546875 4.09765625 C7.19949951 4.10289307 6.29353027 4.10812988 5.36010742 4.11352539 C3 4 3 4 0 3 C0 2.01 0 1.02 0 0 Z " fill="#303030" transform="translate(16,32)"/>
<path d="M0 0 C1.65 0 3.3 0 5 0 C5 5.94 5 11.88 5 18 C3.35 18 1.7 18 0 18 C0 12.06 0 6.12 0 0 Z " fill="#E1E1E1" transform="translate(12,36)"/>
<path d="M0 0 C6.93 0 13.86 0 21 0 C21 0.33 21 0.66 21 1 C18.03 1 15.06 1 12 1 C12 8.26 12 15.52 12 23 C11.01 23 10.02 23 9 23 C9 15.74 9 8.48 9 1 C6.03 1 3.06 1 0 1 C0 0.67 0 0.34 0 0 Z " fill="#DADADA" transform="translate(63,24)"/>
<path d="M0 0 C0.99 0 1.98 0 3 0 C3 7.92 3 15.84 3 24 C2.01 24 1.02 24 0 24 C0 16.08 0 8.16 0 0 Z " fill="#CACACA" transform="translate(234,23)"/>
<path d="M0 0 C0.99 0 1.98 0 3 0 C3 7.92 3 15.84 3 24 C2.01 24 1.02 24 0 24 C0 16.08 0 8.16 0 0 Z " fill="#D2D2D2" transform="translate(224,23)"/>
<path d="M0 0 C2.375 0.1875 2.375 0.1875 5 1 C6.5 3.3125 6.5 3.3125 7 6 C5.625 8.3125 5.625 8.3125 4 10 C-1.875 9.125 -1.875 9.125 -3 8 C-3.04063832 6.33382885 -3.042721 4.66611905 -3 3 C-2.67 3.66 -2.34 4.32 -2 5 C-0.68 4.67 0.64 4.34 2 4 C2 3.01 2 2.02 2 1 C1.34 0.67 0.68 0.34 0 0 Z " fill="#020202" transform="translate(28,40)"/>
<path d="M0 0 C3.5 0.9375 3.5 0.9375 5.4375 2.5 C6.9656371 6.00572628 7.23210084 9.1768136 6.5 12.9375 C4.5 15.4375 4.5 15.4375 2.5 16.9375 C2.17 15.9475 1.84 14.9575 1.5 13.9375 C1.83 13.2775 2.16 12.6175 2.5 11.9375 C2.8052622 7.28474024 2.8052622 7.28474024 1.5 2.9375 C-1.14 2.9375 -3.78 2.9375 -6.5 2.9375 C-4.48884774 -0.02007686 -3.67399752 -0.0656071 0 0 Z " fill="#D7D7D7" transform="translate(164.5,30.0625)"/>
<path d="M0 0 C1.50156874 3.00313748 1.09281204 5.79067522 1.0625 9.125 C1.05347656 10.40632813 1.04445312 11.68765625 1.03515625 13.0078125 C1.02355469 13.99523438 1.01195312 14.98265625 1 16 C0.01 16 -0.98 16 -2 16 C-2.33 11.38 -2.66 6.76 -3 2 C-4.98 2 -6.96 2 -9 2 C-9 1.34 -9 0.68 -9 0 C-5.88173308 -1.55913346 -3.32926126 -0.66585225 0 0 Z " fill="#D5D5D5" transform="translate(149,31)"/>
<path d="M0 0 C4.55555556 0.55555556 4.55555556 0.55555556 6 2 C6.1875 4.4375 6.1875 4.4375 6 7 C5.34 7.66 4.68 8.32 4 9 C-0.55555556 8.44444444 -0.55555556 8.44444444 -2 7 C-2.1875 4.5625 -2.1875 4.5625 -2 2 C-1.34 1.34 -0.68 0.68 0 0 Z " fill="#080808" transform="translate(199,37)"/>
<path d="M0 0 C0.99 0 1.98 0 3 0 C3.33 4.62 3.66 9.24 4 14 C5.32 14.33 6.64 14.66 8 15 C8.66 15.33 9.32 15.66 10 16 C9 17 9 17 5.5625 17.1875 C2 17 2 17 0 15 C-0.14497985 12.41935871 -0.18677545 9.95056116 -0.125 7.375 C-0.11597656 6.66859375 -0.10695313 5.9621875 -0.09765625 5.234375 C-0.07407603 3.48943902 -0.03820461 1.74467705 0 0 Z " fill="#C9C9C9" transform="translate(107,30)"/>
<path d="M0 0 C2.8125 -0.25 2.8125 -0.25 6 0 C8.5217837 2.38168461 8.9776284 3.75301753 9.29296875 7.234375 C9.25816406 8.39453125 9.22335938 9.5546875 9.1875 10.75 C9.16042969 11.92046875 9.13335937 13.0909375 9.10546875 14.296875 C9.07066406 15.18890625 9.03585938 16.0809375 9 17 C8.01 17 7.02 17 6 17 C5.67 12.05 5.34 7.1 5 2 C3.02 2 1.04 2 -1 2 C-0.67 1.34 -0.34 0.68 0 0 Z " fill="#CFCFCF" transform="translate(181,30)"/>
<path d="M0 0 C0.99 0 1.98 0 3 0 C3 5.61 3 11.22 3 17 C2.01 17 1.02 17 0 17 C-1.23104155 13.31599416 -0.90767252 10.08525024 -0.5625 6.25 C-0.46066406 5.07953125 -0.35882813 3.9090625 -0.25390625 2.703125 C-0.17011719 1.81109375 -0.08632812 0.9190625 0 0 Z " fill="#DEDEDE" transform="translate(118,30)"/>
<path d="M0 0 C0.99 0 1.98 0 3 0 C3 5.61 3 11.22 3 17 C2.01 17 1.02 17 0 17 C0 11.39 0 5.78 0 0 Z " fill="#CBCBCB" transform="translate(214,30)"/>
<path d="M0 0 C3.03157528 -0.38700961 5.07139964 -0.58302534 7.7109375 1.07421875 C9.73259415 4.09445126 9.04486255 6.64636198 8.6875 10.1875 C8.56761719 11.45980469 8.44773438 12.73210938 8.32421875 14.04296875 C8.21722656 15.01878906 8.11023438 15.99460937 8 17 C7.34 17 6.68 17 6 17 C5.67 12.05 5.34 7.1 5 2 C2.69 2.33 0.38 2.66 -2 3 C-1.34 2.01 -0.68 1.02 0 0 Z " fill="#D8D8D8" transform="translate(131,30)"/>
<path d="M0 0 C0.66 0 1.32 0 2 0 C2 2.64 2 5.28 2 8 C2.66 8.33 3.32 8.66 4 9 C3.67 9.66 3.34 10.32 3 11 C2.77141886 13.0374763 2.58975722 15.08040303 2.4375 17.125 C2.35371094 18.22070312 2.26992187 19.31640625 2.18359375 20.4453125 C2.12300781 21.28835937 2.06242187 22.13140625 2 23 C1.34 23 0.68 23 0 23 C0 15.41 0 7.82 0 0 Z " fill="#E1E1E1" transform="translate(88,24)"/>
<path d="M0 0 C2.875 -0.125 2.875 -0.125 6 0 C8 2 8 2 8.1953125 5.4765625 C8.18201493 6.85950968 8.15816232 8.24238654 8.125 9.625 C8.11597656 10.33140625 8.10695313 11.0378125 8.09765625 11.765625 C8.07407603 13.51056098 8.03820461 15.25532295 8 17 C7.34 17 6.68 17 6 17 C5.93941406 16.15695313 5.87882812 15.31390625 5.81640625 14.4453125 C5.73261719 13.34960938 5.64882812 12.25390625 5.5625 11.125 C5.48128906 10.03445312 5.40007812 8.94390625 5.31640625 7.8203125 C5.16998297 5.05271029 5.16998297 5.05271029 4 3 C1.47266765 2.34444881 1.47266765 2.34444881 -1 2 C-0.67 1.34 -0.34 0.68 0 0 Z " fill="#D9D9D9" transform="translate(93,30)"/>
<path d="M0 0 C0.66 0 1.32 0 2 0 C2 0.66 2 1.32 2 2 C2.66 2.33 3.32 2.66 4 3 C3.67 3.66 3.34 4.32 3 5 C2.77141886 7.0374763 2.58975722 9.08040303 2.4375 11.125 C2.35371094 12.22070312 2.26992187 13.31640625 2.18359375 14.4453125 C2.12300781 15.28835937 2.06242188 16.13140625 2 17 C1.34 17 0.68 17 0 17 C0 11.39 0 5.78 0 0 Z " fill="#E0E0E0" transform="translate(176,30)"/>
<path d="M0 0 C2.51083114 1.25541557 2.87125446 2.50063488 4 5 C5.98 4.67 7.96 4.34 10 4 C9.67 4.99 9.34 5.98 9 7 C2.9453125 7.1953125 2.9453125 7.1953125 1 7 C0.34 6.34 -0.32 5.68 -1 5 C-0.625 2.375 -0.625 2.375 0 0 Z " fill="#C5C5C5" transform="translate(195,40)"/>
<path d="M0 0 C3.0625 0.1875 3.0625 0.1875 5.0625 2.1875 C3.6703125 2.0946875 3.6703125 2.0946875 2.25 2 C-0.91693248 1.86372737 -0.91693248 1.86372737 -2.6875 3.6875 C-3.1 4.1825 -3.5125 4.6775 -3.9375 5.1875 C-4.5975 5.1875 -5.2575 5.1875 -5.9375 5.1875 C-3.53665014 0.22574363 -3.53665014 0.22574363 0 0 Z " fill="#CECECE" transform="translate(199.9375,35.8125)"/>
<path d="M0 0 C2.64 0 5.28 0 8 0 C5.60676196 2.39323804 4.26851362 2.44196109 1 3 C0.01 3.33 -0.98 3.66 -2 4 C-1.34 2.68 -0.68 1.36 0 0 Z " fill="#CCCCCC" transform="translate(197,30)"/>
</svg>
